<?xml version="1.0" encoding="UTF-8"?>
<svg xmlns="http://www.w3.org/2000/svg" xmlns:xlink="http://www.w3.org/1999/xlink" width="300px" height="300px" viewBox="0 0 300 300" version="1.1">
<g id="surface1">
<path style=" stroke:none;fill-rule:nonzero;fill:rgb(40.392157%,16.470588%,36.078431%);fill-opacity:1;" d="M 63.125 143.5 C 69.375 162.625 96.375 237.375 150 279.25 L 150 193.375 L 65.75 141.5 C 64.375 140.625 62.625 141.875 63.125 143.5 Z M 63.125 143.5 "/>
<path style=" stroke:none;fill-rule:nonzero;fill:rgb(40.392157%,16.470588%,36.078431%);fill-opacity:1;" d="M 236.875 143.5 C 230.75 162.5 203.75 237.25 150 279.25 L 150 193.375 L 234.25 141.375 C 235.75 140.625 237.5 141.875 236.875 143.5 Z M 236.875 143.5 "/>
<path style=" stroke:none;fill-rule:nonzero;fill:rgb(40.392157%,16.470588%,36.078431%);fill-opacity:1;" d="M 264.75 242.875 C 257.375 239.25 247.375 236.125 235.125 233.625 C 228 232.125 220.25 230.875 212 229.875 C 207.625 234.125 203.25 238.25 198.875 242.125 C 236.75 245.875 262.75 253.875 262.75 263.125 C 262.75 276 212.25 286.5 149.875 286.5 C 87.5 286.5 37 276 37 263.125 C 37 253.875 63.125 245.875 100.875 242.125 C 96.625 238.375 92.25 234.25 87.75 229.875 C 79.5 230.875 71.75 232.125 64.625 233.625 C 52.25 236.125 42.375 239.25 35 242.875 C 20.875 249.75 17.875 257.625 17.875 263.125 C 17.875 268.5 20.875 276.375 35 283.375 C 42.375 287 52.375 290.125 64.625 292.625 C 87.875 297.375 118.125 300 150 300 C 181.875 300 212.125 297.375 235.125 292.625 C 247.5 290.125 257.375 287 264.75 283.375 C 278.875 276.5 281.875 268.625 281.875 263.125 C 281.875 257.75 278.875 249.875 264.75 242.875 Z M 264.75 242.875 "/>
<path style=" stroke:none;fill-rule:nonzero;fill:rgb(88.627451%,32.156863%,16.862745%);fill-opacity:1;" d="M 145.5 110.125 L 209.5 110.125 L 209.5 126.875 L 150 161.375 L 90.5 126.875 L 90.5 57.875 L 150 23.375 L 212.5 59.625 C 213.375 60.125 214.625 60.125 215.5 59.625 L 234.75 48.5 C 237.75 46.75 237.75 42.375 234.75 40.625 L 164.875 0 L 135.25 0 L 63 41.875 L 63 142.875 L 150 193.375 L 237 142.875 L 237 85.75 C 237 83.875 235.5 82.5 233.75 82.5 L 145.5 82.5 Z M 145.5 110.125 "/>
</g>
</svg>
