<?xml version="1.0" encoding="UTF-8"?>
<svg version="1.1" xmlns="http://www.w3.org/2000/svg" width="586" height="586">
<path d="M0 0 C1.2800592 -0.0232988 2.56011841 -0.0465976 3.87896729 -0.07060242 C6.5787476 -0.11220308 9.27697339 -0.12552134 11.97705078 -0.12133789 C14.6929783 -0.1207728 17.40054037 -0.16865933 20.11474609 -0.26489258 C39.76912764 -0.95107063 52.78490231 2.13651686 68.91760254 13.50064087 C72.02141441 15.65756771 75.21394648 17.49358544 78.515625 19.33203125 C79.97379639 20.17133179 79.97379639 20.17133179 81.46142578 21.02758789 C82.88044189 21.8434436 82.88044189 21.8434436 84.328125 22.67578125 C97.67888124 30.36590543 110.98546415 38.13061545 124.28710938 45.90527344 C127.25878001 47.64184959 130.2308551 49.37773101 133.203125 51.11328125 C134.17870361 51.68320801 135.15428223 52.25313477 136.15942383 52.84033203 C141.50607835 55.9599062 146.86202872 59.06260576 152.23046875 62.14453125 C153.09789703 62.64298302 153.09789703 62.64298302 153.98284912 63.15150452 C156.76588252 64.75061533 159.55026526 66.34725861 162.33740234 67.93920898 C181.86481051 79.14892804 181.86481051 79.14892804 185.328125 83.17578125 C185.8671875 85.2265625 185.8671875 85.2265625 185.953125 87.48828125 C186.00726563 88.22691406 186.06140625 88.96554688 186.1171875 89.7265625 C183.97970534 96.36122249 175.73984889 99.87059959 169.953125 102.92578125 C165.09938868 105.53149252 160.29280766 108.15524384 155.62109375 111.078125 C154.86812012 111.54444336 154.11514648 112.01076172 153.33935547 112.49121094 C151.9082415 113.38426673 150.48604537 114.29182901 149.07470703 115.21582031 C145.90297212 117.17573158 143.85777544 118.14515086 140.0859375 118.36328125 C134.37259749 116.55781829 129.51202348 113.55990746 124.390625 110.48828125 C123.23308655 109.80551251 122.07487106 109.12389041 120.91601562 108.44335938 C118.53708611 107.04430029 116.16184123 105.63929024 113.78955078 104.22900391 C108.6548212 101.17861479 103.48967582 98.18047192 98.328125 95.17578125 C96.34893174 94.01957678 94.36976528 92.86332641 92.390625 91.70703125 C86.04916856 88.00784832 79.68974448 84.34014966 73.328125 80.67578125 C65.8509086 76.36867263 58.3805882 72.05046862 50.92895508 67.69921875 C48.92622777 66.53025039 46.92218695 65.36352906 44.91674805 64.19921875 C40.17388272 61.4425052 35.45693156 58.65455171 30.78125 55.78515625 C29.91169678 55.25954102 29.04214355 54.73392578 28.14624023 54.19238281 C26.52202955 53.20927877 24.90627395 52.21201285 23.30102539 51.19824219 C22.58422607 50.76801758 21.86742676 50.33779297 21.12890625 49.89453125 C20.20331909 49.3212207 20.20331909 49.3212207 19.2590332 48.73632812 C15.67174415 47.69493027 12.90873101 49.86375641 9.78637695 51.54174805 C8.88878662 52.06422119 7.99119629 52.58669434 7.06640625 53.125 C6.04353516 53.71796875 5.02066406 54.3109375 3.96679688 54.921875 C2.86916016 55.56253906 1.77152344 56.20320313 0.640625 56.86328125 C-0.52127848 57.53811505 -1.68339171 58.21258781 -2.84570312 58.88671875 C-5.2591154 60.28685214 -7.6716196 61.68853144 -10.08349609 63.09130859 C-15.60454591 66.30069405 -21.13891871 69.48698349 -26.671875 72.67578125 C-28.83598893 73.92439004 -31.00005125 75.17308827 -33.1640625 76.421875 C-37.52252888 78.93647561 -41.88199691 81.44932786 -46.2421875 83.9609375 C-57.10581322 90.22015535 -67.96158633 96.4926111 -78.796875 102.80078125 C-79.77414551 103.36869385 -80.75141602 103.93660645 -81.75830078 104.52172852 C-82.6811084 105.05983154 -83.60391602 105.59793457 -84.5546875 106.15234375 C-85.35277832 106.61721191 -86.15086914 107.08208008 -86.97314453 107.56103516 C-88.30901611 108.36033447 -88.30901611 108.36033447 -89.671875 109.17578125 C-90.32580923 109.44052781 -90.97974346 109.70527437 -91.65349388 109.97804356 C-94.12047467 111.13623359 -95.78798513 112.19254769 -97.671875 114.17578125 C-98.8674826 118.41603248 -98.68284409 122.5731267 -98.58007812 126.95239258 C-98.58183044 128.8993251 -98.58183044 128.8993251 -98.58361816 130.8855896 C-98.58591088 134.4377233 -98.53893022 137.98768975 -98.4830265 141.53932023 C-98.43296632 145.2534521 -98.42831293 148.96763543 -98.41882324 152.68205261 C-98.3939721 159.71243416 -98.32834391 166.74181878 -98.24802732 173.7717616 C-98.1585628 181.77642086 -98.11461115 189.78112811 -98.07446384 197.78616297 C-97.99087492 214.24995239 -97.85019089 230.71273954 -97.671875 247.17578125 C-97.15851341 247.46032071 -96.64515182 247.74486017 -96.11623383 248.03802204 C-93.76144411 249.34359221 -91.40708654 250.6499398 -89.05273438 251.95629883 C-88.24527771 252.40382759 -87.43782104 252.85135635 -86.605896 253.31244659 C-80.41336467 256.74956118 -74.27518303 260.26999168 -68.171875 263.86328125 C-66.12012151 265.06566719 -64.06802581 266.26746933 -62.015625 267.46875 C-60.97535156 268.0776709 -59.93507813 268.6865918 -58.86328125 269.31396484 C-53.47822701 272.45552112 -48.07480995 275.56511053 -42.671875 278.67578125 C-35.22695314 282.96331059 -27.79078231 287.26480863 -20.37426758 291.60131836 C-17.41069261 293.33329022 -14.44377344 295.059423 -11.4765625 296.78515625 C-7.52896798 299.08314888 -3.60020415 301.41004952 0.3203125 303.75390625 C2.21858345 304.87398023 4.11701411 305.99378359 6.015625 307.11328125 C6.88292236 307.64010498 7.75021973 308.16692871 8.64379883 308.7097168 C9.45099365 309.1819165 10.25818848 309.65411621 11.08984375 310.140625 C11.79069092 310.55948975 12.49153809 310.97835449 13.21362305 311.40991211 C16.00469744 312.42083468 17.51284899 312.04874142 20.328125 311.17578125 C22.5448929 310.12641279 22.5448929 310.12641279 24.71484375 308.76171875 C25.55692383 308.25592285 26.39900391 307.75012695 27.26660156 307.22900391 C28.1737793 306.67519043 29.08095703 306.12137695 30.015625 305.55078125 C32.00311589 304.35675634 33.9914313 303.16410307 35.98046875 301.97265625 C37.02058105 301.34810547 38.06069336 300.72355469 39.13232422 300.08007812 C44.41578871 296.93179524 49.74625237 293.86613515 55.078125 290.80078125 C56.16295166 290.1761499 57.24777832 289.55151855 58.36547852 288.90795898 C60.57837031 287.63401796 62.79150591 286.36050034 65.00488281 285.08740234 C82.81424678 274.84296215 100.5894913 264.54218846 118.328125 254.17578125 C122.288125 251.86578125 126.248125 249.55578125 130.328125 247.17578125 C130.658125 236.61578125 130.988125 226.05578125 131.328125 215.17578125 C90.408125 215.17578125 49.488125 215.17578125 7.328125 215.17578125 C7.328125 197.35578125 7.328125 179.53578125 7.328125 161.17578125 C30.09348155 161.108115 52.85875693 161.05282907 75.62418842 161.02034473 C86.19407559 161.0048622 96.76389595 160.98374623 107.33374023 160.94946289 C116.54419138 160.91960294 125.75459415 160.90021634 134.96509236 160.89351577 C139.84400526 160.88959772 144.72277972 160.8803611 149.60164833 160.85859108 C154.19066708 160.83827965 158.77948992 160.83193658 163.36854935 160.83645821 C165.05564754 160.8356306 166.74275206 160.82963319 168.42981148 160.81816483 C170.72801245 160.80330398 173.02546753 160.80680369 175.32368469 160.8150177 C176.61142949 160.81225232 177.89917429 160.80948694 179.22594166 160.80663776 C182.328125 161.17578125 182.328125 161.17578125 184.23830795 162.40967655 C185.63191451 164.66808781 185.72841721 166.14310322 185.76963806 168.79421997 C185.80183693 170.21817581 185.80183693 170.21817581 185.83468628 171.67089844 C185.84275299 172.71165527 185.8508197 173.75241211 185.85913086 174.82470703 C185.88870125 176.47223465 185.88870125 176.47223465 185.91886902 178.15304565 C185.97823223 181.80906847 186.01313677 185.46471603 186.04296875 189.12109375 C186.05519533 190.37899593 186.06742191 191.63689812 186.080019 192.93291855 C186.13627117 198.93282493 186.1798889 204.93250787 186.20485491 210.93260777 C186.23096258 217.10147796 186.2880522 223.26806403 186.39819336 229.43603516 C187.39584471 286.50217244 187.39584471 286.50217244 174.94100952 311.81381226 C172.55628555 316.78463809 170.56861554 321.89214223 168.54161072 327.01708984 C161.41746683 344.82733815 152.92740592 362.0421846 144.328125 379.17578125 C143.74498535 380.33932129 143.1618457 381.50286133 142.56103516 382.70166016 C124.33649712 418.85977845 102.48979885 454.59504286 75.85546875 485.24609375 C73.36482812 488.13323512 70.96630259 491.07864792 68.578125 494.05078125 C65.56233536 497.7588073 62.43987283 501.18642127 59.00390625 504.50390625 C57.20212203 506.3014905 55.54835244 508.18238427 53.890625 510.11328125 C48.62030906 516.20708406 42.92667896 521.80022307 36.80859375 527.0390625 C34.72979211 528.82977824 32.67660958 530.64280847 30.62890625 532.46875 C29.27874774 533.66287565 27.92848633 534.85688496 26.578125 536.05078125 C25.9277124 536.63496826 25.2772998 537.21915527 24.60717773 537.82104492 C23.98399658 538.36865479 23.36081543 538.91626465 22.71875 539.48046875 C22.16219727 539.97530762 21.60564453 540.47014648 21.03222656 540.97998047 C19.07470777 542.35360899 17.71034815 542.93755894 15.328125 543.17578125 C12.96397016 541.50624923 10.94849215 539.86782962 8.828125 537.92578125 C8.20574951 537.37220947 7.58337402 536.8186377 6.94213867 536.24829102 C5.66369229 535.10709465 4.39048805 533.95999888 3.12255859 532.80712891 C1.56344101 531.38971072 -0.01182555 529.99009542 -1.58984375 528.59375 C-13.92442947 517.54655404 -26.49740167 505.96098574 -36.58984375 492.79296875 C-38.4712171 490.42801538 -40.4314025 488.20577794 -42.45703125 485.96484375 C-46.54948902 481.38850442 -50.27016674 476.60746973 -53.921875 471.67578125 C-54.56809814 470.80703369 -55.21432129 469.93828613 -55.88012695 469.04321289 C-78.51372578 438.5019256 -97.65617278 406.14582822 -114.671875 372.17578125 C-115.52894043 370.46769287 -115.52894043 370.46769287 -116.40332031 368.72509766 C-129.25842871 342.95146332 -140.12707228 316.34192604 -149.671875 289.17578125 C-149.91797115 288.52741875 -150.16406729 287.87905625 -150.4176209 287.2110464 C-152.35168331 281.88025641 -153.11304187 277.26608716 -153.09320068 271.61701965 C-153.10657073 270.39901996 -153.10657073 270.39901996 -153.12021089 269.15641421 C-153.14602412 266.46200817 -153.15077487 263.76800576 -153.15527344 261.07348633 C-153.16917466 259.13117129 -153.18425087 257.18886435 -153.20040894 255.24656677 C-153.2396033 249.990669 -153.25907752 244.73488583 -153.27244091 239.47886491 C-153.28125427 236.19372103 -153.293572 232.90860807 -153.30695343 229.62347984 C-153.34791451 219.33989296 -153.37695273 209.05637721 -153.3885591 198.77271444 C-153.40202453 186.90877912 -153.45480121 175.04587673 -153.54156089 163.18225557 C-153.60636299 154.00241687 -153.63666881 144.82286936 -153.64068246 135.64280432 C-153.6438277 130.16275358 -153.66157208 124.68367663 -153.7151413 119.20386696 C-153.76450973 114.05448329 -153.77109093 108.90680843 -153.74472427 103.75727272 C-153.74240965 101.86820909 -153.75548938 99.97905438 -153.78509903 98.09022141 C-153.99594848 83.80249426 -153.99594848 83.80249426 -150.70374298 79.75779915 C-148.39322942 78.18564354 -146.28186396 77.14907419 -143.671875 76.17578125 C-142.66640625 75.57926758 -141.6609375 74.98275391 -140.625 74.36816406 C-139.73296875 73.87670898 -138.8409375 73.38525391 -137.921875 72.87890625 C-136.91068604 72.31824463 -135.89949707 71.75758301 -134.85766602 71.17993164 C-133.28069946 70.3116272 -133.28069946 70.3116272 -131.671875 69.42578125 C-124.4829537 65.43402573 -117.30543382 61.43591647 -110.234375 57.23828125 C-103.22474647 53.07774991 -96.17385811 48.99249145 -89.109375 44.92578125 C-80.61531268 40.0343284 -72.13416312 35.12200375 -63.671875 30.17578125 C-54.05122597 24.5529912 -44.4070597 18.97205446 -34.75 13.41210938 C-33.739375 12.83009766 -32.72875 12.24808594 -31.6875 11.6484375 C-30.74563843 11.1142218 -29.80377686 10.5800061 -28.83337402 10.02960205 C-26.83510001 8.85786614 -24.86493748 7.63550919 -22.94006348 6.34674072 C-15.22757006 1.3302283 -9.11380295 0.0593065 0 0 Z " fill="#E0532E" transform="translate(278.671875,2.82421875)"/>
<path d="M0 0 C3.32571123 1.25958987 6.34000957 2.68086879 9.38671875 4.51171875 C10.22895996 5.01437256 11.07120117 5.51702637 11.93896484 6.03491211 C13.29948975 6.85294312 13.29948975 6.85294312 14.6875 7.6875 C23.045813 12.67096021 31.43908315 17.58654759 39.875 22.4375 C48.26552624 27.26544361 56.64273679 32.11469313 65 37 C73.31746719 41.86111578 81.65205714 46.69141139 90 51.5 C101.35723378 58.04302951 112.68514259 64.63505156 124.00146484 71.24853516 C127.07937599 73.04636405 130.15862029 74.84188908 133.23828125 76.63671875 C134.26695312 77.23669678 135.295625 77.8366748 136.35546875 78.45483398 C138.38655109 79.63786222 140.41907187 80.81842484 142.453125 81.99633789 C147.03747575 84.65646373 151.58932226 87.34677127 156.07421875 90.171875 C157.23642944 90.89262207 157.23642944 90.89262207 158.42211914 91.62792969 C159.84228215 92.51248206 161.2526159 93.41311426 162.65014648 94.33300781 C165.6826162 96.20649951 167.40397869 97.09451976 170.98046875 96.52734375 C174.64495392 94.67376845 178.17894797 92.69517346 181.6875 90.5625 C183.21051774 89.65164152 184.73397091 88.74151079 186.2578125 87.83203125 C187.04188477 87.3623291 187.82595703 86.89262695 188.63378906 86.40869141 C192.4225744 84.15308974 196.24246605 81.95212294 200.0625 79.75 C207.24104197 75.60353109 214.40464385 71.43206584 221.5625 67.25 C231.11825041 61.66858875 240.69806193 56.12999121 250.28735352 50.60644531 C257.53838251 46.42717165 264.7743162 42.22292602 272 38 C281.39374161 32.50999006 290.8116765 27.06315779 300.24072266 21.6340332 C308.99471768 16.58995142 317.72347645 11.50344494 326.4375 6.390625 C327.84128906 5.56884766 327.84128906 5.56884766 329.2734375 4.73046875 C330.50199463 4.00960083 330.50199463 4.00960083 331.75537109 3.27416992 C333.80736732 2.10934848 335.87870875 1.03208627 338 0 C337.44544374 4.64313509 336.55357699 8.76572742 334.953125 13.15625 C334.52749268 14.32712158 334.10186035 15.49799316 333.66333008 16.7043457 C333.19317915 17.96992051 332.72203994 19.23512855 332.25 20.5 C332.00768646 21.1538266 331.76537292 21.8076532 331.51571655 22.48129272 C321.52610859 49.3841319 309.86951942 75.35818682 297 101 C296.12529053 102.74531006 296.12529053 102.74531006 295.23291016 104.52587891 C277.00837212 140.6839972 255.16167385 176.41926161 228.52734375 207.0703125 C226.03670312 209.95745387 223.63817759 212.90286667 221.25 215.875 C218.23421036 219.58302605 215.11174783 223.01064002 211.67578125 226.328125 C209.87399703 228.12570925 208.22022744 230.00660302 206.5625 231.9375 C201.29218406 238.03130281 195.59855396 243.62444182 189.48046875 248.86328125 C187.40166711 250.65399699 185.34848458 252.46702722 183.30078125 254.29296875 C181.95062274 255.4870944 180.60036133 256.68110371 179.25 257.875 C178.5995874 258.45918701 177.9491748 259.04337402 177.27905273 259.64526367 C176.65587158 260.19287354 176.03269043 260.7404834 175.390625 261.3046875 C174.83407227 261.79952637 174.27751953 262.29436523 173.70410156 262.80419922 C171.74658277 264.17782774 170.38222315 264.76177769 168 265 C165.63584516 263.33046798 163.62036715 261.69204837 161.5 259.75 C160.87762451 259.19642822 160.25524902 258.64285645 159.61401367 258.07250977 C158.33556729 256.9313134 157.06236305 255.78421763 155.79443359 254.63134766 C154.23531601 253.21392947 152.66004945 251.81431417 151.08203125 250.41796875 C138.74744553 239.37077279 126.17447333 227.78520449 116.08203125 214.6171875 C114.2006579 212.25223413 112.2404725 210.02999669 110.21484375 207.7890625 C106.12238598 203.21272317 102.40170826 198.43168848 98.75 193.5 C97.78066528 192.19687866 97.78066528 192.19687866 96.79174805 190.86743164 C74.15814922 160.32614435 55.01570222 127.97004697 38 94 C37.42862305 92.86127441 36.85724609 91.72254883 36.26855469 90.54931641 C25.36160999 68.68162026 15.98802184 46.26091943 7.4375 23.375 C7.03184814 22.29154297 6.62619629 21.20808594 6.20825195 20.09179688 C3.77827324 13.47424602 1.73406206 6.83300003 0 0 Z " fill="#672E5B" transform="translate(126,281)"/>
<path d="M0 0 C1.43777666 1.33357542 2.88212452 2.66009168 4.33203125 3.98046875 C5.82706704 5.38116398 7.32053916 6.78352992 8.8125 8.1875 C9.9562207 9.25387695 9.9562207 9.25387695 11.12304688 10.34179688 C11.85201172 11.02693359 12.58097656 11.71207031 13.33203125 12.41796875 C13.98921143 13.03438232 14.6463916 13.6507959 15.32348633 14.28588867 C17 16 17 16 19 19 C17.8553125 19.15855469 16.710625 19.31710937 15.53125 19.48046875 C10.83335163 20.13700283 6.13875129 20.81520183 1.44482422 21.49951172 C-0.92023793 21.84312457 -3.28583045 22.18310061 -5.65185547 22.52001953 C-56.93506673 28.36025351 -56.93506673 28.36025351 -101 52 C-103.48814582 55.73221873 -103.61842744 58.67925363 -103 63 C-99.15313292 71.97602319 -88.572554 76.05710664 -80 79.5 C-46.18509834 92.35275535 -8.83540187 96.69903353 27 100 C27.79341797 100.0751886 28.58683594 100.1503772 29.40429688 100.22784424 C56.77640602 102.80493708 84.12901983 103.28811888 111.60206604 103.31007385 C114.13628929 103.31245194 116.67049402 103.31776105 119.20471191 103.32336426 C149.17657073 103.37188029 179.11097557 102.35654892 208.9375 99.25 C209.74333527 99.16796326 210.54917053 99.08592651 211.37942505 99.00140381 C274.00671826 93.81254504 274.00671826 93.81254504 329 67 C331.26872012 63.97503984 331.49512082 60.76264424 331.36328125 57.015625 C330.5407076 52.45166797 327.48316975 50.07102239 323.93359375 47.5078125 C295.35187501 29.3322879 258.23920558 25.63753174 225.34008789 21.56030273 C224.54837692 21.46207214 223.75666595 21.36384155 222.94096375 21.26263428 C221.45459173 21.0796907 219.96788126 20.89946829 218.48078918 20.72247314 C215.25797254 20.33023087 212.12392596 19.90049646 209 19 C209 17 209 17 210.29296875 15.6953125 C211.23076172 14.91800781 211.23076172 14.91800781 212.1875 14.125 C216.69741936 10.29962197 221.02503352 6.30333381 225.3425293 2.26416016 C226.13784058 1.52431885 226.13784058 1.52431885 226.94921875 0.76953125 C227.41674561 0.33229736 227.88427246 -0.10493652 228.3659668 -0.55541992 C228.90519775 -1.03213135 229.44442871 -1.50884277 230 -2 C230.74926758 -2.72727295 231.49853516 -3.4545459 232.27050781 -4.20385742 C235.85514918 -6.562731 237.53106134 -6.19174504 241.72265625 -5.5078125 C242.37190063 -5.40766846 243.02114502 -5.30752441 243.69006348 -5.2043457 C245.81889929 -4.86856559 247.93992423 -4.49817079 250.0625 -4.125 C251.54987149 -3.87897109 253.03742327 -3.63402975 254.52514648 -3.39013672 C342.2062994 11.23728417 342.2062994 11.23728417 364.66015625 40.13671875 C370.17367654 48.57578042 371.1272878 57.05392976 370 67 C365.06539878 82.11989911 353.25630353 91.15674101 339.70703125 98.32421875 C299.81146712 118.51737411 251.51409407 123.80676348 207.43499756 127.77996826 C205.81272173 127.92656068 204.19068729 128.07584957 202.56890869 128.22784424 C173.92287499 130.90551582 145.29783005 131.28882791 116.5492363 131.31007385 C113.80048659 131.31245624 111.05175383 131.31776904 108.30300903 131.32336426 C77.35326738 131.36947978 46.49561879 130.37203085 15.6875 127.25 C14.86054626 127.16796326 14.03359253 127.08592651 13.18157959 127.00140381 C-106.62980608 114.99797921 -106.62980608 114.99797921 -134.921875 80.66796875 C-136.41545484 78.4978416 -137.73369401 76.3086395 -139 74 C-139.61875 72.96875 -140.2375 71.9375 -140.875 70.875 C-143.63935337 63.79030993 -143.26834858 54.02348509 -140.375 47.0625 C-139.25390625 44.9765625 -139.25390625 44.9765625 -138 43 C-137.57589844 42.32710938 -137.15179688 41.65421875 -136.71484375 40.9609375 C-116.73612873 12.13371081 -72.23011658 4.90702496 -40.30126953 -0.98583984 C-37.74675479 -1.44787102 -35.19126607 -1.90455428 -32.63476562 -2.35546875 C-30.28729346 -2.77173195 -27.94199557 -3.20054076 -25.59960938 -3.64453125 C-22.57140244 -4.21589105 -19.53919807 -4.74086404 -16.5 -5.25 C-15.62891602 -5.42047852 -14.75783203 -5.59095703 -13.86035156 -5.76660156 C-7.09904929 -6.79707461 -4.55448689 -4.80466469 0 0 Z " fill="#672D5B" transform="translate(181,455)"/>
</svg>
