<?xml version="1.0" encoding="utf-8"?>
<!-- Generator: Adobe Illustrator 19.1.1, SVG Export Plug-In . SVG Version: 6.00 Build 0)  -->
<svg version="1.1"  xmlns="http://www.w3.org/2000/svg" xmlns:xlink="http://www.w3.org/1999/xlink" x="0px" y="0px"
	 viewBox="0 0 48 48" enable-background="new 0 0 48 48" xml:space="preserve">
<path fill="#64B5F6" d="M44,24c0,11.1-9.1,20-20,20C13.1,44,4,35.1,4,24C4,12.9,12.9,4,24,4C35.1,4,44,12.9,44,24"/>
<path fill="#BBDEFB" d="M23.5,33.6c0.2,0.6,0,1.4-0.2,1.9c-0.2,0.6-0.4,1.4-0.8,1.8c-0.4,0.4-0.8,0.6-1.2,0.8
	c-0.6,0.4-1,1.2-1.6,1.8c0,0.2-0.8,1.4-1,1.4c-1.4-0.4-2.5-1-3.7-1.6c0-0.2-0.2-1.4-0.2-1.6c-0.2-0.6-0.4-1.4-0.6-2.1
	c-0.4-1-1.2-2.1-1.2-3.3c0-1,0.2-2.1-0.4-2.9c-0.8-1-2.5-1-3.3-1.6c-1.2-0.8-2.5-2.1-3.1-3.3c-0.6-1-0.4-1.9-0.2-2.9
	c0.2-1.4,0.6-3.1,1-4.3c0.8-2.1,2.1-4.5,3.7-6c1.6-1.4,4.9-2.3,7-1.6c0.6,0.2,1.2,0.6,1.6,1c0.4,0.4,1,1,1,1.6c0,0.2,0,0.2-0.2,0.4
	c-0.2,0.2-0.4,0.2-0.6,0.2c-0.6,0-1.2,0-1.6-0.2c-0.2-0.2-0.6-0.6-0.8-0.8c-1.2-0.4-3.1,2.3-3.3,3.1c-0.2,0.6-0.2,2.1,0.8,2.3
	c0.6,0,1.9-1.2,2.5-1.6c0.4-0.2,0.6-0.4,1-0.6c1.6-0.2,2.9,1.2,3.3,2.7c0.6,1.6-2.5,2.9-3.7,3.3c-0.4,0.2-0.6-0.2-1,0
	c-1,0.4-2.3,1.6-2.3,2.9c-0.2,1-0.2,2.1-0.4,3.1c-0.2,0-0.4,0-0.4-0.2v-0.4c0-0.6-0.2-1.4-0.8-1.6c-0.2-0.2-0.2-0.2-0.4-0.2
	c-0.6,0-1.2-0.6-1.9-0.2c-0.4,0.4-0.8,1-0.8,1.6c0,0.2,0,0.4,0.2,0.6c0.4,0.2,0.8-0.2,1.2,0c0.4,0,0.4,0.4,0.4,0.6
	c0.4,0.6,0.8,1.4,1.4,1.6h1.4h2.7c0.6,0.2,1.6,0.4,2.1,0.8c0.2,0.4,0.2,0.8,0.4,1.2c1,1,2.3,1,3.5,1.4
	C23.3,32.9,23.5,33.1,23.5,33.6 M24.3,14.4c0.2,0,0.4-0.2,0.8-0.4c0.6-0.4,1.2-1,1.9-1.4c0.6-0.4,1.2-1,1.6-1.4
	c0.6-0.4,1-1.2,1.2-1.9c0.2-0.4,0.8-1.2,0.6-1.9c-0.2-0.4-1.2-0.6-1.6-0.8C27.2,6.2,25.8,6,24.1,6c-0.6,0-1.4,0.2-1.6,0.8
	c-0.2,1,0.6,0.8,1.4,1c0,0,0.2,1.6,0.2,1.8c0.2,1-0.4,1.6-0.4,2.7c0,0.6,0,1.6,0.4,2.1H24.3z M41.6,29.1c0.2-0.4,0.2-1,0.4-1.4
	c0.2-1,0.2-2.1,0.2-3.1c0-2.1-0.2-4.1-0.8-6c-0.4-0.6-0.6-1.2-0.8-1.9c-0.4-1-1-2.1-1.9-2.9c-0.8-1-1.9-3.9-3.7-3.1
	c-0.6,0.2-1,1-1.4,1.4c-0.4,0.6-0.8,1.2-1.2,1.9c-0.2,0.2-0.4,0.6-0.2,0.8c0,0.2,0.2,0.2,0.4,0.2c0.4,0.2,0.6,0.2,1,0.4
	c0.2,0,0.4,0.2,0.2,0.4c0,0,0,0.2-0.2,0.2c-1,1-2.1,1.8-3.1,2.9c-0.2,0.2-0.4,0.6-0.4,0.8c0,0.2,0.2,0.2,0.2,0.4
	c0,0.2-0.2,0.2-0.4,0.4c-0.4,0.2-0.8,0.4-1,0.6c-0.2,0.4,0,1-0.2,1.4c-0.2,1-0.8,1.8-1.2,2.9c-0.4,0.6-0.6,1.2-1,1.8
	c0,0.8-0.2,1.4,0.2,2.1c1,1.4,2.9,0.6,4.3,1.2c0.4,0.2,0.8,0.2,1,0.6c0.6,0.6,0.6,1.6,0.8,2.3c0.2,0.8,0.4,1.6,0.8,2.5
	c0.2,1,0.6,2.1,0.8,2.9c1.9-1.4,3.5-3.1,4.7-5.1C40.4,32.4,41,30.8,41.6,29.1"/>
<path fill="none" stroke="#1E88E5" stroke-width="2" stroke-miterlimit="10" d="M42.9,24c0,10.5-8.6,18.9-18.9,18.9
	C13.6,42.9,5.1,34.5,5.1,24C5.1,13.5,13.5,5.1,24,5.1C34.5,5.1,42.9,13.5,42.9,24 M14.1,24c0,10.5,4.4,19.1,9.9,19.1
	c5.5,0,9.9-8.5,9.9-19.1C33.9,13.5,29.5,5,24,5C18.5,5,14.1,13.5,14.1,24z M24,42.8V5.2"/>
</svg>
